<?xml version="1.0" encoding="UTF-8"?>
<svg id="LOGO" xmlns="http://www.w3.org/2000/svg" xmlns:xlink="http://www.w3.org/1999/xlink" viewBox="0 0 831.24 262.11">
  <defs>
    <style>
      .cls-1, .cls-2, .cls-3 {
        fill: none;
      }

      .cls-1, .cls-4, .cls-3 {
        stroke: #000;
      }

      .cls-1, .cls-3 {
        stroke-width: 2px;
      }

      .cls-4 {
        stroke-width: .75px;
      }

      .cls-4, .cls-3 {
        stroke-miterlimit: 10;
      }

      .cls-5 {
        fill: #f87400;
      }

      .cls-6 {
        clip-path: url(#clippath);
      }
    </style>
    <clipPath id="clippath">
      <rect class="cls-2" x="132.19" y="33.09" width="85.28" height="177.15"/>
    </clipPath>
  </defs>
  <g>
    <path class="cls-3" d="M41.8,31.89l89.18.03"/>
    <path class="cls-3" d="M41.8,210.25h175.77"/>
    <path class="cls-3" d="M217.22,32.58l-86.89,139.21"/>
    <path class="cls-3" d="M43.21,32.23l87.22,139.56"/>
    <path class="cls-1" d="M217.47,32.58v178.63"/>
    <path class="cls-3" d="M42.44,30.98v178.63"/>
    <path class="cls-3" d="M41.8,119.64h55.81"/>
    <g class="cls-6">
      <path class="cls-4" d="M132.19,121.71c0,48.85,39.64,88.61,88.34,88.61.35,0,.65-.31.65-.65V33.76c0-.35-.31-.65-.65-.65-48.69,0-88.34,39.76-88.34,88.61ZM219.87,209.01c-47.69-.35-86.38-39.37-86.38-87.3s38.69-86.95,86.38-87.3v174.6Z"/>
    </g>
    <rect class="cls-5" x="128.01" y="30.98" width="5.93" height="178.63"/>
  </g>
  <g>
    <path d="M258.99,123.87c0-20.77,12.24-33.75,31.89-33.75,16.13,0,27.44,8.62,31.15,23.36h-14.65c-2.6-6.86-8.53-10.85-16.32-10.85-11.03,0-17.61,7.88-17.61,21.05s6.86,21.05,18.45,21.05c9.36,0,16.04-5.01,18.08-13.44h-18.82v-10.38h31.62v35.23h-9.09l-1.21-10.48c-4.91,7.51-13.07,11.59-23.36,11.59-18.36,0-30.13-13.17-30.13-33.38Z"/>
    <path d="M336.17,91.23h45.61v11.59h-31.34v14.55h29.48v11.31h-29.48v15.76h32.26v11.68h-46.54v-64.9ZM353.32,85.58l5.75-14.28h12.89l-7.79,14.28h-10.85Z"/>
    <path d="M394.51,91.23h18.08l18.08,33.84,6.03,12.79-.18-13.17v-33.47h13.63v64.9h-17.99l-18.08-33.84-6.12-12.8.18,13.17v33.47h-13.63v-64.9Z"/>
    <path d="M465.01,91.23h14.37v64.9h-14.37v-64.9Z"/>
    <path d="M494.33,91.23h45.61v11.59h-31.34v14.55h29.48v11.31h-29.48v15.76h32.26v11.68h-46.54v-64.9Z"/>
    <path class="cls-5" d="M552.67,91.23h14.37v64.9h-14.37v-64.9Z"/>
    <path d="M578.46,134.9h14.28c1.21,7.88,6.03,11.03,14.74,11.03s13.07-3.25,13.07-7.88c0-14.37-40.61-4.91-40.61-29.39,0-11.31,8.62-18.54,25.87-18.54s25.77,7.05,27.35,20.68h-13.81c-1.11-5.93-4.91-9.46-13.07-9.46-7.6,0-11.77,2.87-11.77,7.23,0,13.44,41.16,3.99,41.16,29.21,0,12.61-10.2,19.47-27.91,19.47s-27.72-6.77-29.29-22.35Z"/>
    <path d="M645.15,123.68c0-20.4,12.8-33.56,32.63-33.56s32.72,13.17,32.72,33.56-12.79,33.56-32.72,33.56-32.63-13.17-32.63-33.56ZM695.49,123.68c0-12.52-6.67-20.12-17.71-20.12s-17.62,7.6-17.62,20.12,6.68,20.03,17.62,20.03,17.71-7.6,17.71-20.03Z"/>
    <path d="M722.24,91.23h14.37v52.01h29.39v12.89h-43.76v-64.9Z"/>
  </g>
  <g>
    <path d="M618.6,175.89h17.34v4.96h-11.68v6.17h10.95v4.78h-10.91v9.81h-5.7v-25.72Z"/>
    <path d="M640.39,175.89h13.08c2.4,0,4.32.68,5.77,2.02,1.44,1.35,2.17,3.15,2.17,5.4,0,1.79-.48,3.25-1.43,4.39s-2.31,1.88-4.08,2.22c.96.17,1.7.51,2.24,1.01.54.5.97,1.23,1.29,2.19l.88,2.83c.15.44.34.75.57.94s.57.28,1.01.28h.66v4.45h-2.2c-1.47,0-2.55-.25-3.23-.75s-1.24-1.44-1.65-2.81l-.99-3.27c-.29-.98-.72-1.67-1.27-2.06-.55-.39-1.35-.59-2.41-.59h-4.7v9.48h-5.7v-25.72ZM651.86,187.65c1.27,0,2.25-.31,2.94-.92.68-.61,1.03-1.48,1.03-2.61s-.34-2-1.03-2.61c-.69-.61-1.67-.92-2.94-.92h-5.81v7.06h5.81Z"/>
    <path d="M674.6,175.89h7.2l9.26,25.72h-6.06l-1.65-4.74h-10.29l-1.65,4.74h-6.06l9.26-25.72ZM681.88,192.46l-2.39-7.16-1.29-4.56-1.29,4.56-2.43,7.16h7.39Z"/>
    <path d="M694.85,175.89h7.16l7.17,13.41,2.39,5.07-.07-5.22v-13.27h5.4v25.72h-7.13l-7.16-13.41-2.43-5.07.07,5.22v13.27h-5.4v-25.72Z"/>
    <path d="M727.46,200.42c-1.9-1.09-3.36-2.64-4.39-4.65-1.03-2.01-1.54-4.35-1.54-7.02s.52-5.01,1.54-7.02c1.03-2.01,2.49-3.56,4.39-4.65,1.9-1.09,4.11-1.64,6.63-1.64,3.26,0,5.97.89,8.12,2.66,2.15,1.78,3.52,4.21,4.08,7.29h-5.77c-.46-1.47-1.24-2.61-2.33-3.42-1.09-.81-2.41-1.21-3.95-1.21-2.08,0-3.73.71-4.94,2.15-1.21,1.43-1.82,3.37-1.82,5.82s.61,4.39,1.82,5.81,2.86,2.13,4.94,2.13c1.59,0,2.95-.43,4.08-1.29,1.13-.86,1.9-2.06,2.31-3.6h5.73c-.51,3.18-1.86,5.69-4.04,7.51-2.18,1.82-4.93,2.74-8.23,2.74-2.52,0-4.73-.54-6.63-1.63Z"/>
    <path d="M750.77,175.89h18.08v4.59h-12.42v5.77h11.68v4.48h-11.68v6.25h12.79v4.63h-18.45v-25.72Z"/>
  </g>
</svg>